<svg width="12" height="12" viewBox="0 0 12 12" fill="none" xmlns="http://www.w3.org/2000/svg">
<path fill-rule="evenodd" clip-rule="evenodd" d="M3.75 5.625C3.75 5.418 3.918 5.25 4.125 5.25C4.332 5.25 4.5 5.418 4.5 5.625V10.125C4.5 10.3324 4.332 10.5 4.125 10.5C3.918 10.5 3.75 10.3324 3.75 10.125V5.625ZM5.625 5.625C5.625 5.418 5.793 5.25 6 5.25C6.207 5.25 6.375 5.418 6.375 5.625V10.125C6.375 10.3324 6.207 10.5 6 10.5C5.793 10.5 5.625 10.3324 5.625 10.125V5.625ZM7.5 5.625C7.5 5.418 7.668 5.25 7.875 5.25C8.082 5.25 8.25 5.418 8.25 5.625V10.125C8.25 10.3324 8.082 10.5 7.875 10.5C7.668 10.5 7.5 10.3324 7.5 10.125V5.625ZM1.875 10.5C1.875 11.3284 2.54662 12 3.375 12H8.625C9.45337 12 10.125 11.3284 10.125 10.5V4.5H1.875V10.5ZM7.125 1.5H4.875V1.125C4.875 0.917625 5.043 0.75 5.25 0.75H6.75C6.957 0.75 7.125 0.917625 7.125 1.125V1.5ZM10.125 1.5H7.875V0.75C7.875 0.336 7.539 0 7.125 0H4.875C4.461 0 4.125 0.336 4.125 0.75V1.5H1.875C1.461 1.5 1.125 1.836 1.125 2.25V3C1.125 3.414 1.46062 3.74962 1.87462 3.75H10.1258C10.5394 3.74962 10.875 3.414 10.875 3V2.25C10.875 1.836 10.539 1.5 10.125 1.5Z" fill="#D91313"/>
</svg>
