<svg width="12" height="12" viewBox="0 0 12 12" fill="none" xmlns="http://www.w3.org/2000/svg">
<g clip-path="url(#clip0_2641_285)">
<path fill-rule="evenodd" clip-rule="evenodd" d="M9.91607 4.89286L11.1773 3.63165C11.5602 3.24876 11.7516 3.05732 11.854 2.85079C12.0487 2.45785 12.0487 1.99652 11.854 1.60358C11.7516 1.39706 11.5602 1.20561 11.1773 0.822716C10.7944 0.439823 10.6029 0.24838 10.3964 0.146037C10.0035 -0.0486788 9.54213 -0.0486788 9.14923 0.146037C8.9427 0.24838 8.75127 0.439823 8.36835 0.822716L7.09126 2.09984C7.76808 3.25895 8.74151 4.22491 9.91607 4.89286ZM6.06986 3.12121L1.24517 7.94589C0.946674 8.24441 0.797428 8.39364 0.699298 8.57699C0.601175 8.76034 0.559778 8.96729 0.476992 9.38126L0.0448368 11.542C-0.00187575 11.7756 -0.025232 11.8924 0.0412064 11.9588C0.107645 12.0252 0.224426 12.0019 0.457996 11.9552L2.61876 11.523C3.03269 11.4402 3.23966 11.3988 3.42301 11.3007C3.60636 11.2026 3.75561 11.0533 4.0541 10.7548L8.89207 5.91686C7.75326 5.20367 6.79 4.247 6.06986 3.12121Z" fill="white"/>
</g>
<defs>
<clipPath id="clip0_2641_285">
<rect width="12" height="12" fill="white"/>
</clipPath>
</defs>
</svg>
