<svg width="22" height="22" viewBox="0 0 22 22" fill="none" xmlns="http://www.w3.org/2000/svg">
<path d="M3.73624 12.663L3.73598 12.6632C3.54275 12.8001 3.41842 13.0003 3.41605 13.2272C3.41367 13.4545 3.53428 13.657 3.72616 13.7965C3.91916 13.937 4.16173 14.0003 4.39241 14.0014C4.62324 14.0026 4.86645 13.9417 5.06148 13.8043L5.06174 13.8041L10.6475 9.85707C10.6475 9.85707 10.6475 9.85706 10.6475 9.85706C10.7409 9.79111 10.8755 9.75105 11.0218 9.75105C11.168 9.75105 11.3026 9.79112 11.396 9.85707L16.9376 13.7724C16.9376 13.7725 16.9377 13.7725 16.9378 13.7726C16.9378 13.7726 16.9378 13.7726 16.9378 13.7726C17.1308 13.9092 17.3714 13.9702 17.6002 13.9702C17.8291 13.9702 18.0698 13.9091 18.2628 13.7724C18.4582 13.634 18.5827 13.4312 18.5827 13.2021C18.5827 12.973 18.4581 12.7702 18.2626 12.632L12.2026 8.35057L12.0584 8.55475L12.2026 8.35057C11.8665 8.11306 11.4382 8.00146 11.0218 8.00146C10.6053 8.00146 10.1771 8.11306 9.84088 8.35057L3.73624 12.663Z" fill="#BDE986" stroke="#BDE986" stroke-width="0.5"/>
</svg>
