<svg width="22" height="22" viewBox="0 0 22 22" fill="none" xmlns="http://www.w3.org/2000/svg">
<path d="M3.73624 12.663L3.73598 12.6632C3.54275 12.8001 3.41842 13.0003 3.41605 13.2272C3.41367 13.4545 3.53428 13.657 3.72616 13.7965C3.91916 13.937 4.16173 14.0003 4.39241 14.0014C4.62324 14.0026 4.86645 13.9417 5.06148 13.8043L5.06174 13.8041L10.6475 9.85707C10.6475 9.85707 10.6475 9.85706 10.6475 9.85706C10.7409 9.79111 10.8755 9.75105 11.0218 9.75105C11.168 9.75105 11.3026 9.79112 11.396 9.85707L16.9376 13.7724C16.9376 13.7725 16.9377 13.7725 16.9378 13.7726C16.9378 13.7726 16.9378 13.7726 16.9378 13.7726C17.1308 13.9092 17.3714 13.9702 17.6002 13.9702C17.8291 13.9702 18.0698 13.9091 18.2628 13.7724C18.4582 13.634 18.5827 13.4312 18.5827 13.2021C18.5827 12.973 18.4581 12.7702 18.2626 12.632L12.2026 8.35057L12.0584 8.55475L12.2026 8.35057C11.8665 8.11306 11.4382 8.00146 11.0218 8.00146C10.6053 8.00146 10.1771 8.11306 9.84088 8.35057L3.73624 12.663Z" fill="#FF5C77" stroke="#FF5C77" stroke-width="0.5"/>
<path d="M3.73624 18.163L3.73598 18.1632C3.54275 18.3001 3.41842 18.5003 3.41605 18.7272C3.41367 18.9545 3.53428 19.157 3.72616 19.2965C3.91916 19.437 4.16173 19.5003 4.39241 19.5014C4.62324 19.5026 4.86645 19.4417 5.06148 19.3043L5.06174 19.3041L10.6475 15.3571C10.6475 15.3571 10.6475 15.3571 10.6475 15.3571C10.7409 15.2911 10.8755 15.2511 11.0218 15.2511C11.168 15.2511 11.3026 15.2911 11.396 15.3571L16.9376 19.2724C16.9376 19.2725 16.9377 19.2725 16.9378 19.2726C16.9378 19.2726 16.9378 19.2726 16.9378 19.2726C17.1308 19.4092 17.3714 19.4702 17.6002 19.4702C17.8291 19.4702 18.0698 19.4091 18.2628 19.2724C18.4582 19.134 18.5827 18.9312 18.5827 18.7021C18.5827 18.473 18.4581 18.2702 18.2626 18.132L12.2026 13.8506L12.0584 14.0547L12.2026 13.8506C11.8665 13.6131 11.4382 13.5015 11.0218 13.5015C10.6053 13.5015 10.1771 13.6131 9.84088 13.8506L3.73624 18.163Z" fill="#FF5C77" stroke="#FF5C77" stroke-width="0.5"/>
<path d="M3.73624 7.16305L3.73598 7.16323C3.54275 7.3001 3.41842 7.50032 3.41605 7.72717C3.41367 7.95447 3.53428 8.15702 3.72616 8.2965C3.91916 8.43699 4.16173 8.50029 4.39241 8.50145C4.62324 8.50261 4.86645 8.44169 5.06148 8.30425L5.06174 8.30407L10.6475 4.35707C10.6475 4.35707 10.6475 4.35706 10.6475 4.35706C10.7409 4.29111 10.8755 4.25105 11.0218 4.25105C11.168 4.25105 11.3026 4.29112 11.396 4.35707L16.9376 8.27241C16.9376 8.27246 16.9377 8.27251 16.9378 8.27255C16.9378 8.27256 16.9378 8.27257 16.9378 8.27258C17.1308 8.40917 17.3714 8.47024 17.6002 8.47024C17.8291 8.47024 18.0698 8.40912 18.2628 8.27241C18.4582 8.13404 18.5827 7.93118 18.5827 7.70212C18.5827 7.47301 18.4581 7.2702 18.2626 7.13205L12.2026 2.85057L12.0584 3.05475L12.2026 2.85057C11.8665 2.61306 11.4382 2.50146 11.0218 2.50146C10.6053 2.50146 10.1771 2.61306 9.84088 2.85057L3.73624 7.16305Z" fill="#FF5C77" stroke="#FF5C77" stroke-width="0.5"/>
</svg>
