<svg width="12" height="12" viewBox="0 0 12 12" fill="none" xmlns="http://www.w3.org/2000/svg">
<g clip-path="url(#clip0_2641_207)">
<path d="M11.2354 8.27585C11.5929 7.52332 11.7932 6.68168 11.7932 5.79309C11.7932 2.59369 9.19958 0 6.00012 0C2.80067 0 0.207031 2.59369 0.207031 5.79309C0.207031 6.68168 0.407352 7.52332 0.76482 8.27585L2.68979 9.10343L3.93116 12H8.06909L9.31048 9.10345L11.2354 8.27585Z" fill="#FF5C77"/>
<path d="M11.2353 8.27585C11.5928 7.52332 11.7931 6.68168 11.7931 5.79309C11.7931 2.59369 9.19945 0 6 0C6 1.32415 6 12 6 12H8.06897L9.31036 9.10345L11.2353 8.27585Z" fill="#FF5C77"/>
<path d="M3.51651 7.86212C4.43064 7.86212 5.17169 7.12107 5.17169 6.20694C5.17169 5.29281 4.43064 4.55176 3.51651 4.55176C2.60238 4.55176 1.86133 5.29281 1.86133 6.20694C1.86133 7.12107 2.60238 7.86212 3.51651 7.86212Z" fill="#22272B"/>
<path d="M8.48135 7.86212C9.39548 7.86212 10.1365 7.12107 10.1365 6.20694C10.1365 5.29281 9.39548 4.55176 8.48135 4.55176C7.56722 4.55176 6.82617 5.29281 6.82617 6.20694C6.82617 7.12107 7.56722 7.86212 8.48135 7.86212Z" fill="#22272B"/>
<path d="M5.12445 9.38017C5.32819 9.57156 5.64856 9.5615 5.83995 9.35774L5.99935 9.18805L6.15875 9.35774C6.35014 9.56148 6.67044 9.57153 6.8742 9.38017C7.07799 9.18882 7.088 8.86848 6.89663 8.66471L5.99933 7.79321L5.10207 8.66467C4.91068 8.86846 4.92073 9.18878 5.12445 9.38017Z" fill="#22272B"/>
</g>
<defs>
<clipPath id="clip0_2641_207">
<rect width="12" height="12" fill="white"/>
</clipPath>
</defs>
</svg>
