<svg width="22" height="22" viewBox="0 0 22 22" fill="none" xmlns="http://www.w3.org/2000/svg">
<path d="M3.73624 15.663L3.73598 15.6632C3.54275 15.8001 3.41842 16.0003 3.41605 16.2272C3.41367 16.4545 3.53428 16.657 3.72616 16.7965C3.91916 16.937 4.16173 17.0003 4.39241 17.0014C4.62324 17.0026 4.86645 16.9417 5.06148 16.8043L5.06174 16.8041L10.6475 12.8571C10.6475 12.8571 10.6475 12.8571 10.6475 12.8571C10.7409 12.7911 10.8755 12.7511 11.0218 12.7511C11.168 12.7511 11.3026 12.7911 11.396 12.8571L16.9376 16.7724C16.9376 16.7725 16.9377 16.7725 16.9378 16.7726C16.9378 16.7726 16.9378 16.7726 16.9378 16.7726C17.1308 16.9092 17.3714 16.9702 17.6002 16.9702C17.8291 16.9702 18.0698 16.9091 18.2628 16.7724C18.4582 16.634 18.5827 16.4312 18.5827 16.2021C18.5827 15.973 18.4581 15.7702 18.2626 15.632L12.2026 11.3506L12.0584 11.5547L12.2026 11.3506C11.8665 11.1131 11.4382 11.0015 11.0218 11.0015C10.6053 11.0015 10.1771 11.1131 9.84088 11.3506L3.73624 15.663Z" fill="#FFC76D" stroke="#FFC76D" stroke-width="0.5"/>
<path d="M3.73624 10.163L3.73598 10.1632C3.54275 10.3001 3.41842 10.5003 3.41605 10.7272C3.41367 10.9545 3.53428 11.157 3.72616 11.2965C3.91916 11.437 4.16173 11.5003 4.39241 11.5014C4.62324 11.5026 4.86645 11.4417 5.06148 11.3043L5.06174 11.3041L10.6475 7.35707C10.6475 7.35707 10.6475 7.35706 10.6475 7.35706C10.7409 7.29111 10.8755 7.25105 11.0218 7.25105C11.168 7.25105 11.3026 7.29112 11.396 7.35707L16.9376 11.2724C16.9376 11.2725 16.9377 11.2725 16.9378 11.2726C16.9378 11.2726 16.9378 11.2726 16.9378 11.2726C17.1308 11.4092 17.3714 11.4702 17.6002 11.4702C17.8291 11.4702 18.0698 11.4091 18.2628 11.2724C18.4582 11.134 18.5827 10.9312 18.5827 10.7021C18.5827 10.473 18.4581 10.2702 18.2626 10.132L12.2026 5.85057L12.0584 6.05475L12.2026 5.85057C11.8665 5.61306 11.4382 5.50146 11.0218 5.50146C10.6053 5.50146 10.1771 5.61306 9.84088 5.85057L3.73624 10.163Z" fill="#FFC76D" stroke="#FFC76D" stroke-width="0.5"/>
</svg>
